#N canvas 302 138 1041 635 10;
#X obj 181 49 notein;
#X floatatom 137 91 5 0 0 2 note - -;
#X floatatom 182 91 5 0 0 2 velocity - -;
#X floatatom 242 91 5 0 0 2 channel - -;
#X obj 242 138 == 1;
#X obj 317 141 == 17;
#X obj 239 181 spigot;
#X obj 137 120 pack 0 0;
#X text 229 121 modulator;
#X text 311 121 carrier;
#X text 364 137 TODO: don't hardcode;
#X text 365 149 these channel numbers!;
#X text 192 17 === Performance ===;
#X text 725 9 === Data ===;
#X obj 756 137 table modulator_notes;
#X obj 757 112 table carrier_notes;
#X msg 757 75 \; carrier_notes 0 60 62 64 66;
#X text 755 53 carrier/modulator mapping;
#X floatatom 328 275 5 0 0 0 - - -;
#X obj 237 211 unpack 0 0;
#X obj 291 254 moses 1;
#X floatatom 279 276 5 0 0 0 - - -;
#X obj 307 306 tgl 15 0 empty empty empty 17 7 0 10 -262144 -1 -1 0
80;
#X text 108 283 start recording on;
#X obj 327 172 spigot;
#X obj 351 198 bng 15 250 50 0 empty empty empty 17 7 0 10 -262144
-1 -1;
#X obj 676 36 loadbang;
#X msg 605 110 0;
#X obj 605 137 send modulator_note_idx;
#X obj 603 245 receive modulator_note_idx;
#X floatatom 602 267 5 0 0 0 - - -;
#X obj 246 481 send modulator_note_idx;
#X obj 272 399 spigot;
#X obj 602 312 + 1;
#X obj 259 448 tabwrite modulator_notes;
#X obj 270 421 unpack 0 0;
#X obj 432 340 pack 0 0;
#X obj 647 393 spigot;
#X msg 644 487 \; modulator_notes const 0;
#X obj 602 286 t f f;
#X obj 646 332 == -1;
#X msg 225 428 -1;
#X text 172 212 note \, vel;
#X obj 648 457 spigot;
#X obj 367 273 bng 15 250 50 0 empty empty empty 17 7 0 10 -262144
-1 -1;
#X obj 260 275 bng 15 250 50 0 empty empty empty 17 7 0 10 -262144
-1 -1;
#X text 89 427 TODO: maybe decrement;
#X text 89 442 this instead of -1;
#X text 713 381 reset modulator_notes on noteOn following noteOff;
#X text 564 316 idx++;
#X text 724 395 (i.e. check idx==-1 and that it's a noteOn);
#X text 420 461 set idx and;
#X text 421 476 write note to arr;
#X text 430 322 note \, idx;
#X text 105 295 noteOn \, and stop+reset;
#X text 105 307 on noteOff;
#X text 601 223 indexing modulator_notes;
#X connect 0 0 1 0;
#X connect 0 1 2 0;
#X connect 0 2 3 0;
#X connect 1 0 7 0;
#X connect 2 0 7 1;
#X connect 3 0 4 0;
#X connect 3 0 5 0;
#X connect 4 0 6 1;
#X connect 5 0 24 1;
#X connect 6 0 19 0;
#X connect 7 0 6 0;
#X connect 7 0 24 0;
#X connect 18 0 22 0;
#X connect 18 0 32 1;
#X connect 18 0 36 0;
#X connect 19 0 34 0;
#X connect 19 1 20 0;
#X connect 20 0 21 0;
#X connect 20 0 45 0;
#X connect 20 1 18 0;
#X connect 20 1 44 0;
#X connect 21 0 22 0;
#X connect 21 0 41 0;
#X connect 22 0 43 1;
#X connect 24 0 25 0;
#X connect 26 0 16 0;
#X connect 26 0 27 0;
#X connect 27 0 28 0;
#X connect 29 0 30 0;
#X connect 30 0 39 0;
#X connect 32 0 35 0;
#X connect 33 0 36 1;
#X connect 35 1 34 1;
#X connect 35 1 31 0;
#X connect 36 0 32 0;
#X connect 37 0 43 0;
#X connect 39 0 33 0;
#X connect 39 1 40 0;
#X connect 40 0 37 0;
#X connect 40 0 37 1;
#X connect 41 0 31 0;
#X connect 43 0 38 0;
