#N canvas 302 138 1033 527 10;
#X obj 181 49 notein;
#X floatatom 137 91 5 0 0 2 note - -;
#X floatatom 182 91 5 0 0 2 velocity - -;
#X floatatom 242 91 5 0 0 2 channel - -;
#X obj 242 138 == 1;
#X obj 321 55 print channel;
#X obj 317 141 == 17;
#X obj 239 181 spigot;
#X obj 137 120 pack 0 0;
#X text 229 121 modulator;
#X text 311 121 carrier;
#X text 364 137 TODO: don't hardcode;
#X text 365 149 these channel numbers!;
#X text 143 17 === Performance ===;
#X text 782 30 === Data ===;
#X obj 756 137 table modulator_notes;
#X obj 757 112 table carrier_notes;
#X msg 757 75 \; carrier_notes 0 60 62 64 66;
#X text 755 53 carrier/modulator mapping;
#X floatatom 331 263 5 0 0 0 - - -;
#X obj 237 211 unpack 0 0;
#X obj 294 242 moses 1;
#X floatatom 282 264 5 0 0 0 - - -;
#X obj 302 284 bng 15 250 50 0 empty empty empty 17 7 0 10 -262144
-1 -1;
#X obj 353 285 bng 15 250 50 0 empty empty empty 17 7 0 10 -262144
-1 -1;
#X obj 284 332 tgl 15 0 empty empty empty 17 7 0 10 -262144 -1 -1 0
74;
#X text 157 324 start recording on;
#X text 159 336 noteOn \, and stop on;
#X text 158 351 noteOff;
#X obj 327 172 spigot;
#X obj 351 198 bng 15 250 50 0 empty empty empty 17 7 0 10 -262144
-1 -1;
#X obj 697 22 loadbang;
#X msg 605 110 0;
#X obj 605 137 send modulator_note_idx;
#X obj 394 227 receive modulator_note_idx;
#X floatatom 432 258 5 0 0 0 - - -;
#X obj 391 459 send modulator_note_idx;
#X obj 394 348 spigot;
#X obj 444 297 + 1;
#X obj 461 404 tabwrite modulator_notes;
#X obj 392 370 unpack 0 0;
#X obj 386 323 pack 0 0;
#X msg 516 321 \; modulator_notes const 0;
#X obj 502 292 spigot;
#X obj 502 265 == 0;
#X text 554 282 this behavior is still a little buggy;
#X connect 0 0 1 0;
#X connect 0 1 2 0;
#X connect 0 2 3 0;
#X connect 1 0 8 0;
#X connect 2 0 8 1;
#X connect 3 0 4 0;
#X connect 3 0 6 0;
#X connect 4 0 7 1;
#X connect 6 0 29 1;
#X connect 7 0 20 0;
#X connect 8 0 7 0;
#X connect 8 0 29 0;
#X connect 19 0 24 0;
#X connect 19 0 25 0;
#X connect 19 0 37 1;
#X connect 19 0 41 0;
#X connect 20 0 39 0;
#X connect 20 1 21 0;
#X connect 21 0 22 0;
#X connect 21 1 19 0;
#X connect 22 0 23 0;
#X connect 22 0 25 0;
#X connect 22 0 36 0;
#X connect 29 0 30 0;
#X connect 31 0 17 0;
#X connect 31 0 32 0;
#X connect 32 0 33 0;
#X connect 34 0 35 0;
#X connect 35 0 38 0;
#X connect 35 0 44 0;
#X connect 37 0 40 0;
#X connect 38 0 41 1;
#X connect 40 1 39 1;
#X connect 40 1 36 0;
#X connect 41 0 37 0;
#X connect 43 0 42 0;
#X connect 44 0 43 0;
#X connect 44 0 43 1;
