#N canvas 0 38 1440 836 10;
#X obj 108 51 notein;
#X floatatom 64 93 5 0 0 2 note - -;
#X floatatom 109 93 5 0 0 2 velocity - -;
#X floatatom 169 93 5 0 0 2 channel - -;
#X obj 169 140 == 1;
#X obj 244 143 == 17;
#X obj 166 183 spigot;
#X obj 64 122 pack 0 0;
#X text 156 123 modulator;
#X text 238 123 carrier;
#X text 291 139 TODO: don't hardcode;
#X text 292 151 these channel numbers!;
#X text 119 11 === Performance ===;
#X text 652 11 === Data ===;
#X text 682 55 carrier/modulator mapping;
#X floatatom 255 277 5 0 0 0 - - -;
#X obj 164 213 unpack 0 0;
#X obj 218 256 moses 1;
#X floatatom 206 278 5 0 0 0 - - -;
#X obj 234 308 tgl 15 0 empty empty empty 17 7 0 10 -262144 -1 -1 0
69;
#X text 35 285 start recording on;
#X obj 272 181 spigot;
#X obj 603 35 loadbang;
#X msg 571 74 0;
#X floatatom 439 267 5 0 0 0 - - -;
#X obj 199 401 spigot;
#X obj 439 312 + 1;
#X obj 197 423 unpack 0 0;
#X obj 359 335 pack 0 0;
#X obj 606 388 spigot;
#X obj 439 286 t f f;
#X obj 605 327 == -1;
#X msg 152 430 -1;
#X text 99 214 note \, vel;
#X obj 604 461 spigot;
#X obj 294 275 bng 15 250 50 0 empty empty empty 17 7 0 10 -262144
-1 -1;
#X obj 187 277 bng 15 250 50 0 empty empty empty 17 7 0 10 -262144
-1 -1;
#X text 16 429 TODO: maybe decrement;
#X text 16 444 this instead of -1;
#X text 347 463 set idx and;
#X text 348 478 write note to arr;
#X text 357 314 note \, idx;
#X text 32 297 noteOn \, and stop+reset;
#X text 32 309 on noteOff;
#X text 438 222 indexing modulator_notes;
#X obj 718 128 table \$0-carrier_notes;
#X obj 717 153 table \$0-modulator_notes;
#X obj 532 108 send \$0-modulator_note_idx;
#X obj 440 245 receive \$0-modulator_note_idx;
#X obj 173 483 send \$0-modulator_note_idx;
#X obj 186 450 tabwrite \$0-modulator_notes;
#X obj 621 59 f \$0;
#X msg 718 91 \; \$1-carrier_notes 0 60 62 64 66;
#X obj 604 484 b;
#X obj 604 507 f \$0;
#X msg 603 533 \; \$1-modulator_notes const 0;
#X obj 879 211 unpack 0 0;
#X obj 960 240 moses 1;
#X obj 895 269 bng 15 250 50 0 empty empty empty 17 7 0 10 -262144
-1 -1;
#X text 818 212 note \, vel;
#X obj 532 130 send \$0-modulator_notes_size;
#X text 463 315 idx++;
#X obj 878 336 random;
#X obj 922 286 receive \$0-modulator_notes_size;
#X obj 427 361 send \$0-modulator_notes_size;
#X floatatom 922 308 5 0 0 0 - - -;
#X obj 439 334 moses 1;
#X floatatom 878 360 5 0 0 0 - - -;
#X obj 879 382 tabread \$0-modulator_notes;
#X floatatom 878 408 5 0 0 0 - - -;
#X floatatom 846 492 5 0 0 0 - - -;
#X floatatom 888 490 5 0 0 0 - - -;
#X obj 1082 60 hsl 128 15 0 127 0 0 empty empty empty -2 -8 0 10 -262144
-1 -1 0 1;
#X floatatom 1079 80 5 0 0 0 - - -;
#X obj 1079 99 ctlout;
#X obj 536 152 send \$0-prev_carrier_note;
#X obj 958 476 send \$0-prev_carrier_note;
#X obj 959 499 receive \$0-prev_carrier_note;
#X text 653 351 reset modulator_notes on;
#X text 656 363 noteOn following noteOff;
#X text 655 379 (i.e. check idx==-1 and;
#X text 655 392 that it's a noteOn);
#X obj 974 552 pack 0 0 1;
#X obj 918 583 unpack 0 0 0;
#X obj 939 611 noteout;
#X obj 878 427 t f f;
#X obj 859 551 pack 0 60 1;
#X text 969 453 choke off the previous note;
#X text 880 184 processing the carrier;
#X obj 1200 596 + 1;
#X obj 1196 527 bng 15 250 50 0 empty empty empty 17 7 0 10 -262144
-1 -1;
#X obj 1198 552 f 0;
#X floatatom 1198 574 5 0 0 0 - - -;
#X msg 1250 479 0;
#X obj 1186 434 tgl 15 0 empty empty empty 17 7 0 10 -262144 -1 -1
0 1;
#X obj 1201 643 pack \$1 0 1;
#X obj 1200 618 moses 128;
#X obj 1187 499 metro 1;
#X text 1206 440 turn all midi notes off;
#X text 1206 425 press the toggle to;
#X msg 1188 327 1;
#X obj 1188 350 tgl 15 0 empty empty empty 17 7 0 10 -262144 -1 -1
0 1;
#X obj 1187 373 spigot;
#X obj 1187 399 bng 15 250 50 0 empty empty empty 17 7 0 10 -262144
-1 -1;
#X text 1221 332 turn all notes off;
#X text 1221 344 when new chord triggered;
#X text 1079 38 testing ctrl out;
#X connect 0 0 1 0;
#X connect 0 1 2 0;
#X connect 0 2 3 0;
#X connect 1 0 7 0;
#X connect 2 0 7 1;
#X connect 3 0 4 0;
#X connect 3 0 5 0;
#X connect 4 0 6 1;
#X connect 5 0 21 1;
#X connect 6 0 16 0;
#X connect 7 0 6 0;
#X connect 7 0 21 0;
#X connect 15 0 19 0;
#X connect 15 0 25 1;
#X connect 15 0 28 0;
#X connect 16 0 50 0;
#X connect 16 1 17 0;
#X connect 17 0 18 0;
#X connect 17 0 36 0;
#X connect 17 1 15 0;
#X connect 17 1 35 0;
#X connect 18 0 19 0;
#X connect 18 0 32 0;
#X connect 19 0 34 1;
#X connect 21 0 56 0;
#X connect 22 0 23 0;
#X connect 22 0 51 0;
#X connect 23 0 47 0;
#X connect 23 0 60 0;
#X connect 23 0 75 0;
#X connect 24 0 30 0;
#X connect 25 0 27 0;
#X connect 26 0 28 1;
#X connect 26 0 66 0;
#X connect 27 1 49 0;
#X connect 27 1 50 1;
#X connect 28 0 25 0;
#X connect 29 0 34 0;
#X connect 30 0 26 0;
#X connect 30 1 31 0;
#X connect 31 0 29 0;
#X connect 31 0 29 1;
#X connect 32 0 49 0;
#X connect 34 0 53 0;
#X connect 48 0 24 0;
#X connect 51 0 52 0;
#X connect 53 0 54 0;
#X connect 53 0 100 0;
#X connect 54 0 55 0;
#X connect 56 1 57 0;
#X connect 57 1 58 0;
#X connect 57 1 71 0;
#X connect 58 0 62 0;
#X connect 58 0 102 0;
#X connect 62 0 67 0;
#X connect 63 0 65 0;
#X connect 65 0 62 1;
#X connect 66 1 64 0;
#X connect 67 0 68 0;
#X connect 68 0 69 0;
#X connect 69 0 85 0;
#X connect 70 0 86 0;
#X connect 71 0 86 1;
#X connect 72 0 73 0;
#X connect 73 0 74 0;
#X connect 77 0 82 0;
#X connect 82 0 83 0;
#X connect 83 0 84 0;
#X connect 83 1 84 1;
#X connect 83 2 84 2;
#X connect 85 0 70 0;
#X connect 85 1 76 0;
#X connect 86 0 83 0;
#X connect 89 0 96 0;
#X connect 90 0 91 0;
#X connect 91 0 92 0;
#X connect 92 0 89 0;
#X connect 93 0 91 1;
#X connect 93 0 94 0;
#X connect 93 0 101 0;
#X connect 94 0 97 0;
#X connect 95 0 83 0;
#X connect 96 0 91 1;
#X connect 96 0 95 0;
#X connect 96 1 93 0;
#X connect 97 0 90 0;
#X connect 100 0 101 0;
#X connect 101 0 102 1;
#X connect 102 0 103 0;
#X connect 103 0 94 0;
