#N canvas 302 138 1041 635 10;
#X obj 181 49 notein;
#X floatatom 137 91 5 0 0 2 note - -;
#X floatatom 182 91 5 0 0 2 velocity - -;
#X floatatom 242 91 5 0 0 2 channel - -;
#X obj 242 138 == 1;
#X obj 321 55 print channel;
#X obj 317 141 == 17;
#X obj 239 181 spigot;
#X obj 137 120 pack 0 0;
#X text 229 121 modulator;
#X text 311 121 carrier;
#X text 364 137 TODO: don't hardcode;
#X text 365 149 these channel numbers!;
#X text 143 17 === Performance ===;
#X text 782 30 === Data ===;
#X obj 756 137 table modulator_notes;
#X obj 757 112 table carrier_notes;
#X msg 757 75 \; carrier_notes 0 60 62 64 66;
#X text 755 53 carrier/modulator mapping;
#X floatatom 328 275 5 0 0 0 - - -;
#X obj 237 211 unpack 0 0;
#X obj 291 254 moses 1;
#X floatatom 279 276 5 0 0 0 - - -;
#X obj 296 301 bng 15 250 50 0 empty empty empty 17 7 0 10 -262144
-1 -1;
#X obj 350 297 bng 15 250 50 0 empty empty empty 17 7 0 10 -262144
-1 -1;
#X obj 285 327 tgl 15 0 empty empty empty 17 7 0 10 -262144 -1 -1 0
1;
#X text 153 271 start recording on;
#X text 155 283 noteOn \, and stop on;
#X text 154 298 noteOff;
#X obj 327 172 spigot;
#X obj 351 198 bng 15 250 50 0 empty empty empty 17 7 0 10 -262144
-1 -1;
#X obj 697 22 loadbang;
#X msg 605 110 0;
#X obj 605 137 send modulator_note_idx;
#X obj 441 205 receive modulator_note_idx;
#X floatatom 443 231 5 0 0 0 - - -;
#X obj 269 510 send modulator_note_idx;
#X obj 272 399 spigot;
#X obj 462 306 + 1;
#X obj 317 457 tabwrite modulator_notes;
#X obj 270 421 unpack 0 0;
#X obj 387 323 pack 0 0;
#X obj 520 310 spigot;
#X msg 616 396 \; modulator_notes const 0;
#X obj 483 255 t f f;
#X obj 520 284 == -1;
#X obj 408 301 bng 15 250 50 0 empty empty empty 17 7 0 10 -262144
-1 -1;
#X obj 438 295 bng 15 250 50 0 empty empty empty 17 7 0 10 -262144
-1 -1;
#X msg 225 428 -1;
#X obj 415 271 moses 0;
#X text 172 212 note \, vel;
#X text 581 226 incrementing/resetting the idx;
#X text 91 414 oh this should maybe decrement it instead;
#X obj 520 386 spigot;
#X connect 0 0 1 0;
#X connect 0 1 2 0;
#X connect 0 2 3 0;
#X connect 1 0 8 0;
#X connect 2 0 8 1;
#X connect 3 0 4 0;
#X connect 3 0 6 0;
#X connect 4 0 7 1;
#X connect 6 0 29 1;
#X connect 7 0 20 0;
#X connect 8 0 7 0;
#X connect 8 0 29 0;
#X connect 19 0 24 0;
#X connect 19 0 25 0;
#X connect 19 0 37 1;
#X connect 19 0 41 0;
#X connect 20 0 39 0;
#X connect 20 1 21 0;
#X connect 21 0 22 0;
#X connect 21 1 19 0;
#X connect 22 0 23 0;
#X connect 22 0 25 0;
#X connect 22 0 48 0;
#X connect 25 0 53 1;
#X connect 29 0 30 0;
#X connect 31 0 17 0;
#X connect 31 0 32 0;
#X connect 32 0 33 0;
#X connect 34 0 35 0;
#X connect 35 0 44 0;
#X connect 37 0 40 0;
#X connect 38 0 41 1;
#X connect 40 1 39 1;
#X connect 40 1 36 0;
#X connect 41 0 37 0;
#X connect 42 0 53 0;
#X connect 44 0 38 0;
#X connect 44 1 45 0;
#X connect 45 0 42 0;
#X connect 45 0 42 1;
#X connect 48 0 36 0;
#X connect 49 0 46 0;
#X connect 49 1 47 0;
#X connect 53 0 43 0;
