#N canvas -245 180 1385 639 10;
#X obj 181 49 notein;
#X floatatom 137 91 5 0 0 2 note - -;
#X floatatom 182 91 5 0 0 2 velocity - -;
#X floatatom 242 91 5 0 0 2 channel - -;
#X obj 242 138 == 1;
#X obj 317 141 == 17;
#X obj 239 181 spigot;
#X obj 137 120 pack 0 0;
#X text 229 121 modulator;
#X text 311 121 carrier;
#X text 364 137 TODO: don't hardcode;
#X text 365 149 these channel numbers!;
#X text 192 9 === Performance ===;
#X text 725 9 === Data ===;
#X text 755 53 carrier/modulator mapping;
#X floatatom 328 275 5 0 0 0 - - -;
#X obj 237 211 unpack 0 0;
#X obj 291 254 moses 1;
#X floatatom 279 276 5 0 0 0 - - -;
#X obj 307 306 tgl 15 0 empty empty empty 17 7 0 10 -262144 -1 -1 0
67;
#X text 108 283 start recording on;
#X obj 345 179 spigot;
#X obj 676 33 loadbang;
#X msg 676 93 0;
#X floatatom 512 265 5 0 0 0 - - -;
#X obj 272 399 spigot;
#X obj 512 310 + 1;
#X obj 270 421 unpack 0 0;
#X obj 432 333 pack 0 0;
#X obj 679 386 spigot;
#X obj 512 284 t f f;
#X obj 678 325 == -1;
#X msg 225 428 -1;
#X text 172 212 note \, vel;
#X obj 677 459 spigot;
#X obj 367 273 bng 15 250 50 0 empty empty empty 17 7 0 10 -262144
-1 -1;
#X obj 260 275 bng 15 250 50 0 empty empty empty 17 7 0 10 -262144
-1 -1;
#X text 89 427 TODO: maybe decrement;
#X text 89 442 this instead of -1;
#X text 745 374 reset modulator_notes on noteOn following noteOff;
#X text 756 388 (i.e. check idx==-1 and that it's a noteOn);
#X text 420 461 set idx and;
#X text 421 476 write note to arr;
#X text 430 312 note \, idx;
#X text 105 295 noteOn \, and stop+reset;
#X text 105 307 on noteOff;
#X text 511 221 indexing modulator_notes;
#X obj 756 127 table \$0-carrier_notes;
#X obj 755 152 table \$0-modulator_notes;
#X obj 755 177 send \$0-modulator_note_idx;
#X obj 513 243 receive \$0-modulator_note_idx;
#X obj 246 481 send \$0-modulator_note_idx;
#X obj 259 448 tabwrite \$0-modulator_notes;
#X obj 694 57 f \$0;
#X msg 756 90 \; \$1-carrier_notes 0 60 62 64 66;
#X obj 677 482 b;
#X obj 677 505 f \$0;
#X msg 676 531 \; \$1-modulator_notes const 0;
#X obj 1072 249 unpack 0 0;
#X obj 1153 278 moses 1;
#X obj 1083 302 bng 15 250 50 0 empty empty empty 17 7 0 10 -262144
-1 -1;
#X text 1073 222 process the carrier;
#X obj 1202 575 noteout;
#X text 1011 250 note \, vel;
#X obj 755 199 send \$0-modulator_notes_size;
#X text 536 313 idx++;
#X obj 1071 374 random;
#X obj 1091 326 receive \$0-modulator_notes_size;
#X obj 500 359 send \$0-modulator_notes_size;
#X floatatom 1091 348 5 0 0 0 - - -;
#X obj 512 332 moses 1;
#X floatatom 1071 398 5 0 0 0 - - -;
#X obj 1071 422 tabread \$0-modulator_notes;
#X floatatom 1071 446 5 0 0 0 - - -;
#X obj 1194 489 makenote 60 500;
#X msg 1280 538 1;
#X floatatom 1191 518 5 0 0 0 - - -;
#X floatatom 1233 516 5 0 0 0 - - -;
#X obj 930 522 hsl 128 15 0 127 0 0 empty empty empty -2 -8 0 10 -262144
-1 -1 4500 1;
#X floatatom 927 542 5 0 0 0 - - -;
#X obj 927 561 ctlout;
#X connect 0 0 1 0;
#X connect 0 1 2 0;
#X connect 0 2 3 0;
#X connect 1 0 7 0;
#X connect 2 0 7 1;
#X connect 3 0 4 0;
#X connect 3 0 5 0;
#X connect 4 0 6 1;
#X connect 5 0 21 1;
#X connect 6 0 16 0;
#X connect 7 0 6 0;
#X connect 7 0 21 0;
#X connect 15 0 19 0;
#X connect 15 0 25 1;
#X connect 15 0 28 0;
#X connect 16 0 52 0;
#X connect 16 1 17 0;
#X connect 17 0 18 0;
#X connect 17 0 36 0;
#X connect 17 1 15 0;
#X connect 17 1 35 0;
#X connect 18 0 19 0;
#X connect 18 0 32 0;
#X connect 19 0 34 1;
#X connect 21 0 58 0;
#X connect 22 0 23 0;
#X connect 22 0 53 0;
#X connect 23 0 49 0;
#X connect 23 0 64 0;
#X connect 24 0 30 0;
#X connect 25 0 27 0;
#X connect 26 0 28 1;
#X connect 26 0 70 0;
#X connect 27 1 51 0;
#X connect 27 1 52 1;
#X connect 28 0 25 0;
#X connect 29 0 34 0;
#X connect 30 0 26 0;
#X connect 30 1 31 0;
#X connect 31 0 29 0;
#X connect 31 0 29 1;
#X connect 32 0 51 0;
#X connect 34 0 55 0;
#X connect 50 0 24 0;
#X connect 53 0 54 0;
#X connect 55 0 56 0;
#X connect 56 0 57 0;
#X connect 58 1 59 0;
#X connect 59 1 60 0;
#X connect 59 1 74 1;
#X connect 60 0 66 0;
#X connect 66 0 71 0;
#X connect 67 0 69 0;
#X connect 69 0 66 1;
#X connect 70 1 68 0;
#X connect 71 0 72 0;
#X connect 72 0 73 0;
#X connect 73 0 74 0;
#X connect 74 0 76 0;
#X connect 74 1 77 0;
#X connect 74 1 75 0;
#X connect 75 0 62 2;
#X connect 76 0 62 0;
#X connect 77 0 62 1;
#X connect 78 0 79 0;
#X connect 79 0 80 0;
