#N canvas 302 138 853 524 10;
#X obj 181 49 notein;
#X floatatom 137 91 5 0 0 2 note - -;
#X floatatom 182 91 5 0 0 2 velocity - -;
#X floatatom 242 91 5 0 0 2 channel - -;
#X obj 242 139 == 1;
#X obj 321 55 print channel;
#X obj 317 141 == 17;
#X obj 152 259 spigot;
#X floatatom 152 281 5 0 0 0 - - -;
#X obj 239 168 &&;
#X obj 231 230 bng 15 250 50 0 empty empty empty 17 7 0 10 -262144
-1 -1;
#X obj 182 123 > 0;
#X obj 114 138 pack 0 0;
#X text 229 121 modulator;
#X text 311 121 carrier;
#X text 364 137 TODO: don't hardcode;
#X text 365 149 these channel numbers!;
#X obj 319 231 bng 15 250 50 0 empty empty empty 17 7 0 10 -262144
-1 -1;
#X obj 230 202 spigot;
#X obj 317 203 spigot;
#X obj 317 173 &&;
#X text 143 17 === Performance ===;
#X text 672 30 === Data ===;
#X obj 646 137 table modulator_notes;
#X obj 647 112 table carrier_notes;
#X msg 647 75 \; carrier_notes 0 60 62 64 66;
#X text 645 53 carrier/modulator mapping;
#X connect 0 0 1 0;
#X connect 0 1 2 0;
#X connect 0 2 3 0;
#X connect 0 2 5 0;
#X connect 1 0 12 0;
#X connect 2 0 11 0;
#X connect 2 0 12 1;
#X connect 3 0 4 0;
#X connect 3 0 6 0;
#X connect 4 0 9 1;
#X connect 6 0 20 1;
#X connect 7 0 8 0;
#X connect 9 0 18 1;
#X connect 11 0 9 0;
#X connect 11 0 20 0;
#X connect 12 0 18 0;
#X connect 12 0 19 0;
#X connect 18 0 10 0;
#X connect 19 0 17 0;
#X connect 20 0 19 1;
